<svg xmlns="http://www.w3.org/2000/svg" width="24" height="24" fill="none"><rect width="23" height="23" fill="none" rx="0" transform="translate(.5 .5)"/><path fill="#8687E7" d="M5.4 21.75c-1.11 0-1.83-.38-2.28-.83-.87-.88-1.5-2.75.48-6.72l.87-1.73c.11-.23.11-.71 0-.94L3.6 9.8c-1.99-3.97-1.35-5.85-.48-6.72.88-.88 2.75-1.51 6.71.48l8.56 4.28C20.53 8.9 21.7 10.38 21.7 12s-1.17 3.1-3.3 4.16l-8.56 4.28c-1.94.97-3.38 1.31-4.44 1.31Zm0-18c-.54 0-.96.13-1.22.39-.73.72-.43 2.59.76 4.98l.88 1.74c.31.65.31 1.63 0 2.28l-.88 1.73c-1.19 2.4-1.49 4.26-.76 4.98.72.73 2.6.44 4.99-.76l8.57-4.28c1.57-.78 2.46-1.81 2.46-2.82 0-1.01-.91-2.04-2.47-2.82L9.16 4.9C7.64 4.14 6.33 3.75 5.4 3.75Z"/><path fill="#8687E7" d="M10.83 12.75h-5.4c-.4 0-.75-.35-.75-.75 0-.41.35-.75.75-.75h5.4a.749.749 0 1 1 0 1.5Z"/></svg>