<svg xmlns="http://www.w3.org/2000/svg" width="24" height="24" fill="none">
  <path fill="#FFF" fill-opacity=".98" d="M8 5.75c-.41 0-.75-.35-.75-.75V2c0-.41.34-.75.75-.75.4 0 .75.34.75.75v3c0 .4-.35.75-.75.75ZM16 5.75c-.41 0-.75-.35-.75-.75V2c0-.41.34-.75.75-.75.4 0 .75.34.75.75v3c0 .4-.35.75-.75.75ZM8.5 14.5c-.13 0-.27-.03-.38-.08a.852.852 0 0 1-.33-.21c-.18-.19-.29-.44-.29-.71 0-.13.03-.26.08-.38.04-.12.11-.23.21-.33.09-.09.19-.16.33-.21.35-.15.8-.07 1.08.21.18.19.3.45.3.71 0 .06-.02.13-.03.2-.01.06-.03.12-.06.18a.71.71 0 0 1-.08.18c-.03.05-.08.1-.13.15-.18.18-.44.29-.7.29ZM12 14.49c-.13 0-.26-.02-.38-.08-.13-.05-.24-.12-.33-.2-.18-.2-.29-.45-.29-.72 0-.13.03-.25.08-.38.04-.12.12-.23.21-.33.09-.08.2-.16.33-.21.36-.16.8-.07 1.09.21.17.2.29.46.29.71 0 .06-.01.13-.02.21-.01.05-.03.11-.07.17a.71.71 0 0 1-.08.18c-.03.05-.08.1-.12.16-.19.17-.45.28-.71.28ZM15.5 14.49c-.13 0-.26-.02-.38-.08-.13-.05-.24-.12-.33-.2a1.01 1.01 0 0 0-.13-.16c-.04-.06-.06-.12-.08-.18a.697.697 0 0 1-.06-.17c-.01-.08-.02-.15-.02-.21 0-.25.11-.51.29-.71.09-.08.2-.16.33-.21.37-.16.8-.07 1.08.21.18.2.3.46.3.71 0 .06-.01.13-.02.21-.02.05-.03.11-.07.17-.02.06-.04.12-.08.18l-.13.16c-.18.17-.44.28-.7.28ZM8.5 18c-.13 0-.27-.04-.38-.09-.12-.05-.24-.12-.33-.21-.18-.18-.29-.44-.29-.7 0-.14.03-.26.08-.39a.69.69 0 0 1 .21-.32c.36-.38 1.05-.38 1.41 0 .18.19.3.45.3.71 0 .26-.12.52-.3.7-.18.18-.44.3-.7.3ZM12 18c-.26 0-.52-.12-.71-.3-.18-.18-.29-.44-.29-.7 0-.14.03-.26.08-.39.04-.12.12-.24.21-.32.36-.38 1.05-.38 1.42 0 .09.08.16.2.2.32.06.13.09.25.09.39 0 .26-.12.52-.29.7-.19.18-.45.3-.71.3ZM15.5 18c-.26 0-.52-.12-.71-.3a.751.751 0 0 1-.21-.33.946.946 0 0 1-.08-.37c0-.14.03-.26.08-.39.04-.12.12-.24.21-.32.23-.24.58-.34.89-.27.08 0 .14.02.19.05.06.02.13.05.19.09.05.04.09.09.14.13.18.19.3.45.3.71 0 .26-.12.52-.3.7-.18.18-.44.3-.7.3ZM20.5 9.83h-17c-.41 0-.75-.34-.75-.75s.34-.75.75-.75h17c.4 0 .75.34.75.75s-.35.75-.75.75Z"/>
  <path fill="#FFF" fill-opacity=".98" d="M16 22.75H8c-3.65 0-5.75-2.11-5.75-5.75V8.5c0-3.65 2.1-5.75 5.75-5.75h8c3.64 0 5.75 2.1 5.75 5.75V17c0 3.64-2.11 5.75-5.75 5.75ZM8 4.25c-2.87 0-4.25 1.38-4.25 4.25V17c0 2.86 1.38 4.25 4.25 4.25h8c2.86 0 4.25-1.39 4.25-4.25V8.5c0-2.87-1.39-4.25-4.25-4.25H8Z"/>
</svg>
