<svg xmlns="http://www.w3.org/2000/svg" width="24" height="24" fill="none">
  <path fill="#FFF" fill-opacity=".98" d="M12 22.75C6.07 22.75 1.25 17.92 1.25 12 1.25 6.07 6.07 1.25 12 1.25c5.92 0 10.75 4.82 10.75 10.75 0 5.92-4.83 10.75-10.75 10.75Zm0-20c-5.11 0-9.25 4.14-9.25 9.25 0 5.1 4.14 9.25 9.25 9.25 5.1 0 9.25-4.15 9.25-9.25 0-5.11-4.15-9.25-9.25-9.25Z"/>
  <path fill="#FFF" fill-opacity=".98" d="M15.71 15.92c-.13 0-.26-.03-.38-.1l-3.1-1.85c-.77-.46-1.34-1.47-1.34-2.36v-4.1c0-.41.34-.75.75-.75s.75.34.75.75v4.1c0 .36.3.89.61 1.06l3.1 1.86c.36.21.47.67.26 1.03a.76.76 0 0 1-.65.36Z"/>
</svg>
