<svg xmlns="http://www.w3.org/2000/svg" width="24" height="24" fill="none">
  <path fill="#FFF" fill-opacity=".98" d="M12 12.75c-3.17 0-5.75-2.59-5.75-5.75 0-3.17 2.58-5.75 5.75-5.75 3.16 0 5.75 2.58 5.75 5.75 0 3.16-2.59 5.75-5.75 5.75Zm0-10c-2.35 0-4.25 1.9-4.25 4.25 0 2.34 1.9 4.25 4.25 4.25A4.26 4.26 0 0 0 16.25 7c0-2.35-1.91-4.25-4.25-4.25ZM20.59 22.75c-.41 0-.75-.35-.75-.75 0-3.46-3.52-6.25-7.84-6.25S4.16 18.54 4.16 22c0 .4-.34.75-.75.75s-.75-.35-.75-.75c0-4.27 4.19-7.75 9.34-7.75 5.15 0 9.34 3.48 9.34 7.75 0 .4-.34.75-.75.75Z"/>
</svg>
