<svg xmlns="http://www.w3.org/2000/svg" width="95.034" height="80.462" fill="none">
  <path fill="#8685E7" d="M80.46 45.83V64c0 4.53-1.61 8.41-4.83 11.63-3.22 3.22-7.1 4.83-11.63 4.83H16.45c-4.53 0-8.41-1.61-11.63-4.83C1.6 72.41 0 68.53 0 64V16.45c0-4.53 1.6-8.41 4.82-11.63C8.04 1.6 11.92 0 16.45 0H64c2.4 0 4.63.47 6.68 1.42.58.27.92.71 1.03 1.32.12.65-.05 1.2-.51 1.66l-2.8 2.8c-.38.38-.82.57-1.32.57-.11 0-.28-.04-.51-.12-.88-.23-1.73-.34-2.57-.34H16.45c-2.51 0-4.66.89-6.45 2.69-1.8 1.79-2.69 3.94-2.69 6.45V64c0 2.51.89 4.67 2.69 6.46 1.79 1.79 3.94 2.68 6.45 2.68H64c2.51 0 4.67-.89 6.46-2.68s2.68-3.95 2.68-6.46V49.48c0-.49.17-.91.52-1.25l3.65-3.66c.38-.38.82-.57 1.32-.57.23 0 .46.06.68.17.77.3 1.15.86 1.15 1.66Zm13.2-27.95L47.14 64.4c-.91.91-2 1.37-3.26 1.37-1.25 0-2.34-.46-3.25-1.37L16.05 39.83c-.91-.92-1.37-2-1.37-3.26 0-1.26.46-2.34 1.37-3.26l6.29-6.28c.91-.92 2-1.38 3.26-1.38 1.25 0 2.34.46 3.25 1.38l15.03 15.02L80.86 5.08c.91-.91 2-1.37 3.25-1.37 1.26 0 2.35.46 3.26 1.37l6.29 6.29c.91.91 1.37 2 1.37 3.25 0 1.26-.46 2.35-1.37 3.26Z"/>
</svg>
