<svg xmlns="http://www.w3.org/2000/svg" width="227" height="227" fill="none">
  <defs>
    <clipPath id="a">
      <rect width="226" height="226" fill="#fff" fill-opacity="0" rx="0" transform="translate(.5 .5)"/>
    </clipPath>
  </defs>
  <rect width="226" height="226" fill="none" rx="0" transform="translate(.5 .5)"/>
  <g clip-path="url(#a)">
    <path fill="#EBEBEB" fill-rule="evenodd" d="M0 173.61h227v.11H0v-.11ZM162.98 177.93h41.27v.11h-41.27v-.11ZM139.07 176.7h11.3v.11h-11.3v-.11ZM158.68 182.14h17.52v.12h-17.52v-.12ZM23.81 181.38h10.28v.12H23.81v-.12ZM38.13 181.38h12.21v.12H38.13v-.12ZM80.95 179.47h21.26v.11H80.95v-.11Z"/>
    <path fill="#EBEBEB" d="M107.59 153.36H19.93c-.69 0-1.34-.28-1.83-.76-.49-.49-.76-1.15-.76-1.84V27.53c.01-.68.28-1.33.77-1.81.48-.48 1.14-.75 1.82-.75h87.66c.69 0 1.35.27 1.84.75.48.49.76 1.15.76 1.84v123.2c0 .69-.28 1.35-.76 1.84-.49.48-1.15.76-1.84.76ZM19.93 25.06c-.66 0-1.29.26-1.75.72-.46.47-.72 1.1-.72 1.75v123.23c0 .66.26 1.29.72 1.76.46.46 1.09.72 1.75.72h87.66c.66 0 1.29-.26 1.76-.72.46-.47.72-1.1.72-1.76V27.53c0-.65-.26-1.28-.72-1.75-.47-.46-1.1-.72-1.76-.72H19.93ZM205.8 153.36h-87.67c-.69 0-1.34-.28-1.83-.76-.49-.49-.76-1.15-.76-1.84V27.53c.01-.68.28-1.33.77-1.81.48-.48 1.14-.75 1.82-.75h87.67c.68 0 1.33.27 1.82.75.48.48.76 1.13.76 1.81v123.23c0 .69-.27 1.35-.75 1.83-.49.49-1.15.76-1.83.77Zm-87.67-128.3a2.474 2.474 0 0 0-2.48 2.47v123.23a2.474 2.474 0 0 0 2.48 2.48h87.67c.66 0 1.29-.26 1.75-.72.46-.47.73-1.1.73-1.76V27.53c0-.65-.27-1.28-.73-1.75-.46-.46-1.09-.72-1.75-.72h-87.67Z"/>
    <path fill="#F0F0F0" fill-rule="evenodd" d="M78.09 173.6H23.81V53.56h54.28V173.6Z"/>
    <path fill="#F5F5F5" fill-rule="evenodd" d="M75.52 173.6H23.81V53.56h51.71V173.6Z"/>
    <path fill="#F0F0F0" fill-rule="evenodd" d="M72.79 56.29v114.59H26.54V56.29h46.25Z"/>
    <path fill="#FFF" d="M41.48 110.32h-9.43c-.32 0-.63-.13-.85-.36a1.197 1.197 0 0 1 0-1.71c.22-.23.53-.36.85-.36h9.43c.32 0 .63.13.86.36.22.23.35.53.35.86 0 .32-.13.62-.35.85-.23.23-.54.36-.86.36Z"/>
    <path fill="#F0F0F0" fill-rule="evenodd" d="M27.24 56.29v114.59h-.7V56.29h.7ZM111.6 171.33h-8.08v-35.05h8.08v35.05Z"/>
    <path fill="#F0F0F0" fill-rule="evenodd" d="M110.05 173.55H70.2v-2.22h39.85v2.22Z"/>
    <path fill="#F5F5F5" fill-rule="evenodd" d="M68.64 136.28h34.88v35.05H68.64v-35.05Z"/>
    <path fill="#F0F0F0" fill-rule="evenodd" d="M71.82 140.59h28.52v11.5H71.82v-11.5ZM71.82 155.52h28.52v11.49H71.82v-11.49Z"/>
    <path fill="#F5F5F5" d="M82.88 141.56h6.4c.21 0 .41-.08.56-.23.14-.15.23-.35.23-.55a.787.787 0 0 0-.79-.79h-6.4a.787.787 0 0 0-.79.79c0 .2.09.4.23.55.15.15.35.23.56.23ZM82.88 156.49h6.4c.21 0 .41-.08.55-.23.15-.14.23-.34.24-.54a.83.83 0 0 0-.23-.56.83.83 0 0 0-.56-.23h-6.4a.83.83 0 0 0-.56.23.83.83 0 0 0-.23.56c.01.2.09.4.24.54.14.15.34.23.55.23ZM88.74 135.59a.56.56 0 0 1-.42-.18.56.56 0 0 1-.18-.42v-18.21c0-.16.06-.31.17-.42.12-.11.27-.18.43-.18.16 0 .31.07.42.18.11.11.18.26.18.42v18.21c0 .16-.07.31-.18.42a.56.56 0 0 1-.42.18Z"/>
    <path fill="#F0F0F0" fill-rule="evenodd" d="M83.13 134.88h11.22v1.42H83.13v-1.42Z"/>
    <path fill="#F0F0F0" d="M91.84 124.7c-.07 0-.15-.04-.21-.09a.398.398 0 0 1-.09-.21v-9.09c.01-.08.04-.15.09-.21.06-.05.13-.09.21-.09.08 0 .16.04.21.09.06.06.09.13.09.21v9.08c0 .04 0 .08-.02.12-.01.03-.03.07-.06.1-.03.02-.06.05-.1.06-.04.02-.08.03-.12.03Z"/>
    <path fill="#F0F0F0" d="M80.02 118.44s.22-8.58 8.72-8.58 8.72 8.57 8.72 8.57l-17.44.01ZM153.59 130.57c.24 0 .48 0 .73.02 2.51.18 4.87 1.26 6.65 3.05 1.77 1.78 2.85 4.15 3.01 6.66.08 1.14-.04 2.29-.33 3.39-1.14 4.43-1.69 9-1.64 13.57v13.32c.01.23-.04.46-.13.67-.09.22-.22.41-.38.57-.16.17-.36.3-.57.38-.21.09-.44.14-.67.13h-42.28v-41.76h35.61Z"/>
    <path fill="#F5F5F5" d="M107.56 140.99c0-1.49.32-2.95.94-4.3.61-1.34 1.51-2.55 2.62-3.52 1.12-.97 2.43-1.7 3.85-2.12 1.41-.43 2.91-.55 4.38-.36 1.46.2 2.87.7 4.13 1.49 1.26.78 2.33 1.82 3.15 3.06.83 1.23 1.38 2.62 1.62 4.08.24 1.46.17 2.96-.22 4.39a52.572 52.572 0 0 0-1.63 13.57v13.32c0 .23-.04.46-.13.67-.09.21-.22.4-.38.57-.16.16-.36.29-.57.38-.21.08-.44.13-.67.13H111.3c-.23 0-.46-.05-.67-.14a1.65 1.65 0 0 1-.57-.37 1.96 1.96 0 0 1-.38-.57c-.08-.21-.13-.44-.13-.67v-14.12c.04-4.29-.5-8.57-1.62-12.71-.25-.91-.37-1.85-.37-2.78Z"/>
    <path fill="#F0F0F0" fill-rule="evenodd" d="M170.29 172.33h-37.96v-25.36h37.96v25.36Z"/>
    <path fill="#E0E0E0" d="M201.66 152.71h-50.8v-38.89c0-2.09.83-4.1 2.3-5.58a7.928 7.928 0 0 1 5.58-2.3h35.04c2.09 0 4.1.83 5.57 2.3a7.895 7.895 0 0 1 2.31 5.58v38.89Z"/>
    <path fill="#F5F5F5" d="M191.73 152.71h-50.8v-39.27c0-1.99.79-3.9 2.19-5.31a7.509 7.509 0 0 1 5.31-2.2h35.78c1.99 0 3.9.79 5.31 2.2a7.55 7.55 0 0 1 2.2 5.31v39.27h.01Z"/>
    <path fill="#E0E0E0" d="M167.81 154.99h-34.99c-.6 0-1.18-.24-1.6-.67-.43-.42-.67-1-.67-1.6v-5.76c0-.6.24-1.18.67-1.6.42-.43 1-.67 1.6-.67h34.99c.18 0 .36.08.49.2.13.13.2.31.2.49v8.93c0 .18-.08.35-.2.48-.13.13-.31.2-.49.2Z"/>
    <path fill="#F0F0F0" d="M205.41 130.57c.24 0 .48 0 .73.02 2.51.18 4.87 1.26 6.64 3.05 1.78 1.78 2.85 4.15 3.02 6.66.08 1.14-.04 2.29-.34 3.39-1.13 4.43-1.68 9-1.63 13.58v13.32c0 .23-.05.45-.13.67a1.779 1.779 0 0 1-.95.94c-.22.09-.44.13-.67.13h-42.29v-41.76h35.62Z"/>
    <path fill="#F5F5F5" d="M159.38 140.99c-.02-2.72 1.02-5.34 2.9-7.29 1.88-1.96 4.46-3.11 7.17-3.2 2.71-.08 5.36.89 7.36 2.72a10.4 10.4 0 0 1 3.38 7.08c.07 1.15-.04 2.29-.34 3.4a51.716 51.716 0 0 0-1.63 13.57v13.32c0 .46-.19.9-.51 1.23-.33.33-.78.51-1.24.51h-13.36c-.23 0-.45-.04-.67-.13-.21-.09-.4-.22-.56-.38-.17-.16-.29-.35-.38-.57-.09-.21-.13-.43-.13-.66v-14.11c.03-4.29-.51-8.57-1.62-12.71-.25-.91-.37-1.85-.37-2.78Z"/>
    <path fill="#E0E0E0" d="M118.72 173.61h85.94c.17 0 .34-.04.49-.1.15-.07.29-.16.41-.28.12-.12.21-.26.27-.41.07-.15.1-.32.1-.49h-88.48c0 .17.03.34.1.49.06.15.15.29.27.41.12.12.26.21.41.28.15.06.32.1.49.1Z"/>
    <path fill="#E0E0E0" fill-rule="evenodd" d="M197.26 76.21h-27.64V46.06h27.64v30.15Z"/>
    <path fill="#F5F5F5" fill-rule="evenodd" d="M196.33 76.21h-28.36V46.06h28.36v30.15Z"/>
    <path fill="#FFF" fill-rule="evenodd" d="M193.95 48.43v25.4h-23.61v-25.4h23.61Z"/>
    <path fill="#F5F5F5" d="m182.15 54.71 6.46 11.19h-12.92l6.46-11.19Z"/>
    <path fill="#E0E0E0" fill-rule="evenodd" d="M158.48 93.81h-27.64V63.66h27.64v30.15Z"/>
    <path fill="#F5F5F5" fill-rule="evenodd" d="M157.55 93.81h-28.36V63.66h28.36v30.15Z"/>
    <path fill="#FFF" fill-rule="evenodd" d="M155.17 66.03v25.41h-23.61V66.03h23.61Z"/>
    <path fill="#F5F5F5" d="m140.48 83.26-2.8-4.85a3.361 3.361 0 0 1 0-3.33c.3-.51.72-.93 1.22-1.22.51-.29 1.08-.44 1.67-.44h5.61c.59 0 1.16.15 1.67.44.5.3.92.72 1.22 1.22.29.51.44 1.08.45 1.66 0 .59-.15 1.16-.44 1.67l-2.81 4.85c-.29.51-.71.94-1.22 1.23-.51.3-1.08.45-1.67.45-.59 0-1.17-.15-1.68-.45-.51-.29-.93-.72-1.22-1.23Z"/>
    <path fill="#D7D7D7" d="M143.69 45.08H39.03l6.89 142.53h104.65l-6.88-142.53Z"/>
    <path fill="#000" d="M143.69 45.08H39.03l6.89 142.53h104.65l-6.88-142.53Z" opacity=".2"/>
    <path fill="#D7D7D7" d="M144.65 45.08H40l6.89 142.53h104.66l-6.9-142.53Z"/>
    <path fill="#000" d="M139.13 49.87H44.78l6.59 131.29 82.04-.1 13.64-12.09-7.92-119.1Z" opacity=".2"/>
    <path fill="#FFF" d="M139.85 49.87c1.01 39.32 4.18 78.55 9.51 117.52-7.47 5.15-14.91 10.29-22.31 15.44H56.49A1072.81 1072.81 0 0 1 44.78 49.87h95.07Z"/>
    <path fill="#EBEBEB" d="M149.36 167.39c-7.47 5.15-14.91 10.29-22.31 15.44 1.61-6.81 3.3-13.62 5.05-20.44l17.26 5Z"/>
    <path fill="#D7D7D7" d="M70.37 61.88c.17 4.81.38 9.62.62 14.43H56.57c-.24-4.81-.45-9.62-.63-14.43h14.43Zm1.47-1.52H54.37c.2 5.82.45 11.64.75 17.47H72.6c-.3-5.82-.56-11.65-.76-17.47Z"/>
    <path fill="#E0E0E0" d="M129.3 67.3H79.9c-.05-1.09-.09-2.18-.13-3.26h49.4c.04 1.08.09 2.17.13 3.26ZM118.87 74.15H80.2l-.15-3.26h38.66c.05 1.09.1 2.17.16 3.26Z"/>
    <path fill="#D7D7D7" d="M71.78 90.14c.3 4.81.64 9.62 1.01 14.43H58.37a999 999 0 0 1-1.02-14.43h14.43Zm1.43-1.52H55.74c.35 5.82.76 11.65 1.22 17.48h17.49c-.45-5.83-.86-11.65-1.22-17.48h-.02Z"/>
    <path fill="#E0E0E0" d="M99.6 95.56H81.44c-.07-1.09-.15-2.18-.22-3.27h18.16c.07 1.09.15 2.18.22 3.27ZM116.8 95.56h-13.36c-.07-1.09-.15-2.18-.21-3.27h13.35c.07 1.09.14 2.18.22 3.27ZM125.18 102.42H81.94l-.24-3.27h43.24l.24 3.27Z"/>
    <path fill="#D7D7D7" d="M73.95 118.41c.43 4.81.9 9.62 1.4 14.43H60.92c-.5-4.81-.97-9.62-1.4-14.43h14.43Zm1.39-1.52H57.86c.52 5.83 1.08 11.65 1.69 17.48h17.48c-.61-5.83-1.17-11.66-1.69-17.48Z"/>
    <path fill="#E0E0E0" d="M133.52 127.43H84.11l.32 3.26h49.41l-.32-3.26ZM122.12 120.57H83.46l.3 3.26h38.66c-.1-1.09-.2-2.16-.3-3.26Z"/>
    <path fill="#D7D7D7" d="M76.87 146.68c.56 4.81 1.15 9.62 1.78 14.43H64.22c-.62-4.81-1.22-9.62-1.78-14.43h14.43Zm1.36-1.52H60.74c.67 5.83 1.38 11.65 2.16 17.47h17.45c-.76-5.82-1.48-11.64-2.15-17.47h.03Z"/>
    <path fill="#E0E0E0" d="M136.24 152.09H86.83c-.13-1.09-.27-2.18-.39-3.27h49.4c.13 1.1.26 2.19.4 3.27ZM110.18 158.95h-22.5c-.14-1.08-.27-2.17-.41-3.26h22.49l.42 3.26ZM123.61 158.95h-9.72c-.14-1.08-.27-2.17-.41-3.26h9.71c.14 1.09.29 2.18.42 3.26Z"/>
    <path fill="#D7D7D7" d="m64.01 74.25-.64-1.02c-1.4-2.22-4.25-4.21-5.24-4.79l.74-1.3c1.93 1.17 3.66 2.65 5.11 4.39 2.2-2.99 5.45-6.09 9.9-9.41l.94 1.23c-4.75 3.55-8.07 6.81-10.17 9.94l-.64.96ZM65.73 102.51l-.66-1.01c-1.46-2.23-4.36-4.22-5.36-4.8l.69-1.3c1.97 1.17 3.74 2.66 5.24 4.39 2.11-2.99 5.28-6.08 9.64-9.41.32.41.65.81.97 1.23-4.65 3.56-7.89 6.81-9.9 9.95-.21.31-.41.64-.62.95ZM68.24 130.86l-.69-1.02c-1.52-2.23-4.48-4.21-5.49-4.79.21-.45.45-.87.66-1.3 2 1.17 3.8 2.65 5.35 4.39 2.04-3 5.12-6.09 9.39-9.42l1 1.23c-4.54 3.56-7.71 6.81-9.63 9.95l-.59.96Z"/>
    <path fill="#EBEBEB" d="M114.01 174.99c-2.68 0-4.22-.99-5.59-1.86-1.36-.87-2.53-1.62-4.79-1.62-2.26 0-3.27.79-4.34 1.62-1.06.84-2.37 1.86-5.05 1.86-2.68 0-4.22-.99-5.58-1.86-1.36-.87-2.53-1.62-4.79-1.62-2.27 0-3.27.79-4.34 1.62-1.07.84-2.37 1.86-5.05 1.86-2.67 0-4.22-.99-5.58-1.86-1.36-.87-2.53-1.62-4.8-1.62-.05-.46-.12-.87-.18-1.31 2.68 0 4.22.99 5.58 1.86 1.36.87 2.53 1.63 4.79 1.63 2.26 0 3.27-.79 4.34-1.63 1.06-.83 2.38-1.86 5.06-1.86 2.67 0 4.21.99 5.57 1.86 1.36.87 2.53 1.63 4.79 1.63 2.27 0 3.27-.79 4.34-1.63 1.07-.83 2.38-1.86 5.06-1.86 2.68 0 4.22.99 5.58 1.86 1.36.87 2.53 1.63 4.79 1.63.06.43.13.87.19 1.3Z"/>
    <path fill="#8687E7" d="M117.85 48.6c-1.53-4.08-5.08-6.76-8.89-6.76h-7.78a2.93 2.93 0 0 1-1.62-.51c-.48-.32-.86-.78-1.08-1.31a7.268 7.268 0 0 0-6.61-4.45c-1.37-.01-2.71.41-3.82 1.21-1.12.8-1.94 1.94-2.37 3.24-.17.53-.51 1-.96 1.32-.46.33-1.01.5-1.57.5h-7.76c-3.82 0-7.11 2.69-8.24 6.76l-.46 1.63h51.76l-.6-1.63Z"/>
    <path fill="#BCBDFF" d="M118.13 51.82H67.19a1.695 1.695 0 0 1-1.68-1.59c-.01-.21.02-.42.09-.61.07-.19.19-.37.33-.52.14-.15.31-.27.5-.35.19-.08.4-.12.6-.12h50.94c.43.01.84.17 1.15.47.31.3.5.7.53 1.13.01.2-.02.41-.09.6-.07.2-.18.37-.33.52-.14.15-.31.27-.5.35-.19.08-.4.13-.6.12Z"/>
    <path fill="#000" d="M118.13 51.82H67.19a1.695 1.695 0 0 1-1.68-1.59c-.01-.21.02-.42.09-.61.07-.19.19-.37.33-.52.14-.15.31-.27.5-.35.19-.08.4-.12.6-.12h50.94c.43.01.84.17 1.15.47.31.3.5.7.53 1.13.01.2-.02.41-.09.6-.07.2-.18.37-.33.52-.14.15-.31.27-.5.35-.19.08-.4.13-.6.12Z" opacity=".2"/>
    <path fill="#FFC3BD" d="M163.85 186.24h-3.32l-.34-7.7h3.33l.33 7.7ZM183.82 186.24h-3.32l-1.67-7.7h3.32l1.67 7.7Z"/>
    <path fill="#263238" d="M180.26 185.85H184c.06 0 .13.03.18.07.05.04.09.1.1.16l.66 2.96c.01.07.01.15-.01.22a.42.42 0 0 1-.09.19c-.05.06-.11.1-.18.14-.06.03-.14.04-.21.04-1.3-.02-1.94-.1-3.58-.1-1.01 0-3.1.11-4.49.11-1.39 0-1.58-1.37-1.01-1.51 2.57-.56 3.53-1.33 4.35-2.07a.83.83 0 0 1 .54-.21ZM160.55 185.85h3.63c.07 0 .13.03.18.07.05.04.09.1.1.16l.66 2.96c.02.07.02.14 0 .21-.01.07-.04.14-.09.19a.455.455 0 0 1-.36.19c-1.32-.02-3.21-.1-4.86-.1-1.92 0-3.58.11-5.85.11-1.36 0-1.74-1.37-1.17-1.51 2.6-.57 4.73-.63 6.98-2.02.23-.15.5-.24.78-.26Z"/>
    <path fill="#FFC3BD" d="M167.07 64.88c-.46 2.43-.72 5.45.98 7.07 0 0-.97 2.47-5.5 2.47-4.13 0-2.06-2.47-2.06-2.47 2.73-.65 2.57-4 2.1-5.9l4.48-1.17Z"/>
    <path fill="#D7D7D7" d="M159.2 72.29c.09-.6 1.15-1.3 2.36-1.57 1.2-.26 5.84-.85 7.26-.26s-.25 2.32-.25 2.32l-9.37-.49Z"/>
    <path fill="#FFF" d="M159.2 72.29c.09-.6 1.15-1.3 2.36-1.57 1.2-.26 5.84-.85 7.26-.26s-.25 2.32-.25 2.32l-9.37-.49Z" opacity=".4"/>
    <path fill="#000" d="m160.19 178.54.18 3.97h3.32l-.17-3.97h-3.33ZM182.15 178.54h-3.32l.86 3.97h3.33l-.87-3.97Z" opacity=".2"/>
    <path fill="#FFC3BD" d="m174.94 74.95-4 2.68s5.75 10.24 5.27 11.88c-.66 2.23-1.57 7.11-2.82 9.59.16.53.99 1.76 1.45 1.96 3.18-2.41 6.39-9.98 6.27-12.1-.27-4.81-6.17-14.01-6.17-14.01Z"/>
    <path fill="#B55B52" d="m173.39 99.11-3.18-.25 1.67 3.5s2.77.13 3.23-1.99l-1.72-1.26Z"/>
    <path fill="#D7D7D7" d="m189.1 116.18-.27.5-1.8 3.4-63.82-33.74 2.06-3.91 63.83 33.75ZM193.22 108.38l-1.31 2.49-.75 1.41-63.83-33.75 2.06-3.9 63.83 33.75Z"/>
    <path fill="#D7D7D7" fill-rule="evenodd" d="m125.29 82.42 2.06-3.9 63.81 33.8-2.07 3.9-63.8-33.8Z"/>
    <path fill="#000" fill-rule="evenodd" d="m125.29 82.42 2.06-3.9 63.81 33.8-2.07 3.9-63.8-33.8Z" opacity=".2"/>
    <path fill="#D7D7D7" d="m120.46 75.15-1.86 3.51 4.61 7.68 6.18-11.71-8.93.52Z"/>
    <path fill="#FFF" d="m120.46 75.15-1.86 3.51 4.61 7.68 6.18-11.71-8.93.52Z" opacity=".8"/>
    <path fill="#D7D7D7" d="m116.62 75.37 1.98 3.29 1.86-3.51-3.84.22Z"/>
    <path fill="#B55B52" d="m167.65 100.46 1.66 3.09 2.58-1.19-1.67-3.5-2.57 1.6Z"/>
    <path fill="#8687E7" d="M173.99 72.71c3.15.45 6.75 11.35 6.75 11.35l-6.61 3.73s-2.91-5.17-4.34-9.03c-1.51-4.03.83-6.54 4.2-6.05Z"/>
    <path fill="#000" d="M172.16 76.44c-1.43-1.3-.55 4.29.13 7.88.35.7.68 1.33.96 1.86 1.59-2.81.88-7.93-1.09-9.74Z" opacity=".2"/>
    <path fill="#8687E7" d="M155.36 72.88s-3.93 10.04-.2 28.75h17.81c.12-2.73-1.59-16.06 1.04-28.92-1.97-.38-3.96-.63-5.96-.76-2.51-.14-5.04-.14-7.56 0-1.73.18-3.45.49-5.13.93Z"/>
    <path fill="#FFC3BD" d="m158.1 77.55-4.49-1.78s-5.17 10.55-6.81 11.08c-2.21.73-6.75 2.72-9.5 3.11-.35.46-.88 1.82-.8 2.32 3.8 1.24 11.86-.4 13.53-1.7 3.84-2.96 8.07-13.03 8.07-13.03Z"/>
    <path fill="#000" d="M158.6 76.35c-.74-1.71-2.16-2.42-3.63-2.17-.57 2.09-1.54 6.69-1.36 13.62l1.05.51s5.21-9.04 3.94-11.96Z" opacity=".2"/>
    <path fill="#8687E7" d="M159.31 75.15c1.11 2.98-4.54 11.75-4.54 11.75l-6.66-3.64c1-2.72 2.29-5.33 3.85-7.78 2.34-3.49 6.12-3.59 7.35-.33Z"/>
    <path fill="#FFC3BD" d="m137.46 89.96-3.96.83 2.01 3.67c1.11-.55 2.11-1.29 2.97-2.17l-1.02-2.33ZM131.63 91.63l1.58 2.18 2.3.67-2.01-3.67-1.87.82Z"/>
    <path fill="#263238" d="M159.52 61.38c0 .27-.17.45-.34.45-.18 0-.31-.23-.29-.5.02-.27.17-.45.35-.45.17 0 .3.23.28.5Z"/>
    <path fill="#ED847E" d="M159.76 61.4c-.37.8-.84 1.55-1.41 2.22.17.14.38.24.59.3.22.05.45.06.67.01l.15-2.53Z"/>
    <path fill="#263238" d="M159.18 60.45c-.02 0-.05-.01-.07-.02a.218.218 0 0 1-.04-.05c-.01-.01-.02-.03-.03-.05v-.06l.03-.06c.13-.21.31-.39.52-.52.22-.13.46-.21.71-.23.04.01.08.02.11.05.03.03.05.07.05.11 0 .05-.02.09-.05.12a.15.15 0 0 1-.11.04c-.2.02-.38.08-.55.19-.16.1-.3.24-.4.41-.02.03-.04.05-.07.06-.03.02-.07.02-.1.01Z"/>
    <path fill="#FFC3BD" d="M168.55 61.15c-.39 3.28-.46 5.21-2.21 6.81-2.65 2.4-6.62.66-7.22-2.68-.54-2.99.19-7.84 3.49-8.97.72-.25 1.5-.31 2.26-.18.75.13 1.46.46 2.06.94a4.68 4.68 0 0 1 1.34 1.83c.28.71.38 1.49.28 2.25Z"/>
    <path fill="#263238" d="M161.94 61.79c-1.15.23-2.98-2.33-1.48-4.49-.76-.38-3.24 1.11-4.17-.28-.93-1.39 1.66-2.13 1.16-3.3 1.75.36-1.13 2.54.53 2.33 1.67-.21 3.59-3.29 5.45-2.03 3.29 2.21 7.78-1.47 5.95 3.14 2.24-.45 3.78 2.2 1.64 4.04-4.27 3.65-1.64 4.13-4.34 4.32-1.36.1-4.5-1.51-4.74-3.73Z"/>
    <path fill="#FFC3BD" d="M163.64 62.65c-.15.32-.37.62-.65.86a2.8 2.8 0 0 1-.93.54c-.91.31-1.43-.5-1.22-1.39.19-.81.91-1.95 1.85-1.87.21.02.41.1.58.21.17.12.31.28.4.46.1.19.14.39.14.6-.01.2-.06.41-.17.59Z"/>
    <path fill="#D7D7D7" d="M161.47 101.63s3.78 25.42 5.85 34.96c2.27 10.44 10.82 45.16 10.82 45.16h6.09s-5.64-33.89-6.93-44.22c-1.41-11.2-4.35-35.89-4.35-35.89l-11.48-.01Z"/>
    <path fill="#FFF" d="M161.47 101.63s3.78 25.42 5.85 34.96c2.27 10.44 10.82 45.16 10.82 45.16h6.09s-5.64-33.89-6.93-44.22c-1.41-11.2-4.35-35.89-4.35-35.89l-11.48-.01Z" opacity=".2"/>
    <path fill="#000" d="M165.96 110.52c-.29-.4-.54-.54-.78-.46h-.05l-.15.09c-.04.04-.09.09-.13.14l-.07.09-.1.15c-.07.13-.14.27-.2.41-.04.09-.07.18-.1.27-.04.09-.09.23-.12.36-.04.12-.11.34-.16.53 0 .05-.02.09-.03.14-.02.05-.05.21-.08.32-.02.1-.04.18-.06.27-.04.18-.07.36-.11.55-.04.19-.08.42-.11.63 0 .07-.02.14-.04.22-.04.27-.08.55-.13.84 1.01 6.33 2.21 13.58 3.18 18.64.05-.16.1-.33.14-.52.2-.84.35-1.7.45-2.56.86-6.52.47-17.51-1.35-20.11Z" opacity=".2"/>
    <path fill="#D7D7D7" d="M155.16 101.63s-.46 24.87-.1 35.01c.38 10.56 4.07 45.1 4.07 45.1h5.63s.21-33.93.45-44.29c.28-11.3 1.64-35.82 1.64-35.82h-11.69Z"/>
    <path fill="#FFF" d="M155.16 101.63s-.46 24.87-.1 35.01c.38 10.56 4.07 45.1 4.07 45.1h5.63s.21-33.93.45-44.29c.28-11.3 1.64-35.82 1.64-35.82h-11.69Z" opacity=".2"/>
    <path fill="#263238" d="M165.13 180.02c.03 0 0 1.83 0 1.83h-6.49l-.28-2.06 6.77.23ZM184.23 180.15c.03 0 .3 1.7.3 1.7h-6.69l-.59-1.95 6.98.25Z"/>
    <path fill="#D7D7D7" d="M179.16 186.43c-.22.02-.45-.04-.64-.16a.407.407 0 0 1-.13-.19.445.445 0 0 1-.03-.23c0-.05.01-.09.03-.13.03-.04.06-.07.1-.09.37-.19 1.44.45 1.57.54.01.01.02.02.02.04.01.01.01.03.01.04 0 .02-.01.03-.02.04-.01.02-.03.02-.04.03-.28.07-.58.11-.87.11Zm-.49-.68a.205.205 0 0 0-.11 0c-.01.01-.03.02-.03.04-.01.01-.02.03-.02.05 0 .05 0 .11.02.16s.05.09.09.13c.37.17.8.19 1.18.06-.34-.22-.73-.37-1.13-.44Z"/>
    <path fill="#D7D7D7" d="M180.01 186.32c-.01.01-.02.01-.04 0-.34-.18-1-.91-.93-1.28.01-.06.04-.11.08-.15.05-.04.11-.06.16-.06.06-.01.13 0 .18.02.06.01.12.04.16.08.39.32.45 1.28.45 1.32 0 .01 0 .03-.01.04 0 .01-.01.02-.02.03h-.03Zm-.67-1.36h-.01c-.11 0-.12.06-.12.08-.04.22.38.77.72 1.03-.02-.38-.16-.74-.39-1.04a.207.207 0 0 0-.1-.06.205.205 0 0 0-.11 0l.01-.01ZM159.16 186.44c-.28.02-.57-.05-.8-.21a.382.382 0 0 1-.12-.17c-.03-.07-.04-.14-.03-.21 0-.04.01-.09.03-.12.03-.04.06-.07.1-.09.4-.23 1.74.45 1.89.53.02.01.03.02.04.04v.04c0 .02-.01.03-.02.05-.01.01-.03.02-.04.02-.35.07-.7.11-1.05.12Zm-.6-.69c-.05 0-.1.01-.15.03l-.03.03c-.01.02-.02.04-.02.05 0 .05 0 .1.02.14.02.04.04.08.08.11.2.18.75.22 1.49.09-.44-.22-.91-.38-1.39-.45Z"/>
    <path fill="#D7D7D7" d="M160.19 186.32h-.03c-.4-.18-1.2-.91-1.13-1.27 0-.09.07-.2.29-.22.08-.01.16-.01.24.01.08.03.15.07.21.12.42.35.51 1.24.51 1.28.01.02 0 .03 0 .04-.01.02-.02.03-.03.03-.01.01-.04.02-.06.01Zm-.81-1.36h-.03c-.14 0-.15.07-.15.09-.04.22.5.79.9 1.04-.04-.39-.2-.74-.45-1.03a.439.439 0 0 0-.27-.09v-.01Z"/>
  </g>
</svg>
